<svg width="1000" height="304" viewBox="0 0 1000 304" role="img" xmlns="http://www.w3.org/2000/svg"><title>svg-engine</title><desc>The svg-engine logo: a blue Bezier-node symbol next to the svg-engine wordmark.</desc><g transform="translate(8,24) scale(0.5)"><path d="M96,400 C184,400 184,256 256,256 S328,112 416,112" fill="none" stroke="#2563eb" stroke-width="18" stroke-linecap="round"/><line x1="184" y1="256" x2="328" y2="256" stroke="#93c5fd" stroke-width="7" stroke-linecap="round"/><circle cx="184" cy="256" r="13" fill="#2563eb"/><circle cx="328" cy="256" r="13" fill="#2563eb"/><rect x="84" y="388" width="24" height="24" rx="3" fill="#ffffff" stroke="#2563eb" stroke-width="6"/><rect x="404" y="100" width="24" height="24" rx="3" fill="#ffffff" stroke="#2563eb" stroke-width="6"/><rect x="239" y="239" width="34" height="34" rx="4" fill="#ffffff" stroke="#2563eb" stroke-width="8"/></g><g transform="translate(262,183)"><path fill="#2563eb" d="M 33.72 1.08 Q 25.56 1.08 19.08 -1.86 Q 12.6 -4.8 8.82 -9.84 Q 5.04 -14.88 4.68 -21 L 4.68 -21 L 21.6 -21 Q 22.08 -17.16 25.38 -14.64 Q 28.68 -12.12 33.6 -12.12 L 33.6 -12.12 Q 38.4 -12.12 41.1 -14.04 Q 43.8 -15.96 43.8 -18.96 L 43.8 -18.96 Q 43.8 -22.2 40.5 -23.82 Q 37.2 -25.44 30 -27.36 L 30 -27.36 Q 22.56 -29.16 17.82 -31.08 Q 13.08 -33 9.66 -36.96 Q 6.24 -40.92 6.24 -47.64 L 6.24 -47.64 Q 6.24 -53.16 9.42 -57.72 Q 12.6 -62.28 18.54 -64.92 Q 24.48 -67.56 32.52 -67.56 L 32.52 -67.56 Q 44.4 -67.56 51.48 -61.62 Q 58.56 -55.68 59.28 -45.6 L 59.28 -45.6 L 43.2 -45.6 Q 42.84 -49.56 39.9 -51.9 Q 36.96 -54.24 32.04 -54.24 L 32.04 -54.24 Q 27.48 -54.24 25.02 -52.56 Q 22.56 -50.88 22.56 -47.88 L 22.56 -47.88 Q 22.56 -44.52 25.92 -42.78 Q 29.28 -41.04 36.36 -39.24 L 36.36 -39.24 Q 43.56 -37.44 48.24 -35.52 Q 52.92 -33.6 56.34 -29.58 Q 59.76 -25.56 59.88 -18.96 L 59.88 -18.96 Q 59.88 -13.2 56.7 -8.64 Q 53.52 -4.08 47.58 -1.5 Q 41.64 1.08 33.72 1.08 L 33.72 1.08 M 84.6 -66.48 L 101.4 -15.48 L 118.2 -66.48 L 136.08 -66.48 L 111.48 0 L 91.08 0 L 66.6 -66.48 L 84.6 -66.48 M 171.6 -67.56 Q 179.04 -67.56 184.68 -64.62 Q 190.32 -61.68 193.56 -57 L 193.56 -57 L 193.56 -66.48 L 210.48 -66.48 L 210.48 0.48 Q 210.48 9.72 206.76 16.98 Q 203.04 24.24 195.6 28.5 Q 188.16 32.76 177.6 32.76 L 177.6 32.76 Q 163.44 32.76 154.38 26.16 Q 145.32 19.56 144.12 8.16 L 144.12 8.16 L 160.8 8.16 Q 162.12 12.72 166.5 15.42 Q 170.88 18.12 177.12 18.12 L 177.12 18.12 Q 184.44 18.12 189 13.74 Q 193.56 9.36 193.56 0.48 L 193.56 0.48 L 193.56 -9.84 Q 190.32 -5.16 184.62 -2.04 Q 178.92 1.08 171.6 1.08 L 171.6 1.08 Q 163.2 1.08 156.24 -3.24 Q 149.28 -7.56 145.26 -15.42 Q 141.24 -23.28 141.24 -33.48 L 141.24 -33.48 Q 141.24 -43.56 145.26 -51.36 Q 149.28 -59.16 156.18 -63.36 Q 163.08 -67.56 171.6 -67.56 L 171.6 -67.56 M 193.56 -33.24 Q 193.56 -39.36 191.16 -43.74 Q 188.76 -48.12 184.68 -50.46 Q 180.6 -52.8 175.92 -52.8 L 175.92 -52.8 Q 171.24 -52.8 167.28 -50.52 Q 163.32 -48.24 160.86 -43.86 Q 158.4 -39.48 158.4 -33.48 L 158.4 -33.48 Q 158.4 -27.48 160.86 -22.98 Q 163.32 -18.48 167.34 -16.08 Q 171.36 -13.68 175.92 -13.68 L 175.92 -13.68 Q 180.6 -13.68 184.68 -16.02 Q 188.76 -18.36 191.16 -22.74 Q 193.56 -27.12 193.56 -33.24 L 193.56 -33.24"/><path fill="#1f2937" d="M 227.16 -49.92 L 278.04 -49.92 L 278.04 -35.76 L 227.16 -35.76 L 227.16 -49.92 M 358.68 -34.68 Q 358.68 -31.08 358.2 -28.2 L 358.2 -28.2 L 309.6 -28.2 Q 310.2 -21 314.64 -16.92 Q 319.08 -12.84 325.56 -12.84 L 325.56 -12.84 Q 334.92 -12.84 338.88 -20.88 L 338.88 -20.88 L 357 -20.88 Q 354.12 -11.28 345.96 -5.1 Q 337.8 1.08 325.92 1.08 L 325.92 1.08 Q 316.32 1.08 308.7 -3.18 Q 301.08 -7.44 296.82 -15.24 Q 292.56 -23.04 292.56 -33.24 L 292.56 -33.24 Q 292.56 -43.56 296.76 -51.36 Q 300.96 -59.16 308.52 -63.36 Q 316.08 -67.56 325.92 -67.56 L 325.92 -67.56 Q 335.4 -67.56 342.9 -63.48 Q 350.4 -59.4 354.54 -51.9 Q 358.68 -44.4 358.68 -34.68 L 358.68 -34.68 M 309.72 -39.48 L 341.28 -39.48 Q 341.16 -45.96 336.6 -49.86 Q 332.04 -53.76 325.44 -53.76 L 325.44 -53.76 Q 319.2 -53.76 314.94 -49.98 Q 310.68 -46.2 309.72 -39.48 L 309.72 -39.48 M 407.76 -67.44 Q 419.64 -67.44 426.96 -59.94 Q 434.28 -52.44 434.28 -39 L 434.28 -39 L 434.28 0 L 417.48 0 L 417.48 -36.72 Q 417.48 -44.64 413.52 -48.9 Q 409.56 -53.16 402.72 -53.16 L 402.72 -53.16 Q 395.76 -53.16 391.74 -48.9 Q 387.72 -44.64 387.72 -36.72 L 387.72 -36.72 L 387.72 0 L 370.92 0 L 370.92 -66.48 L 387.72 -66.48 L 387.72 -58.2 Q 391.08 -62.52 396.3 -64.98 Q 401.52 -67.44 407.76 -67.44 L 407.76 -67.44 M 476.28 -67.56 Q 483.72 -67.56 489.36 -64.62 Q 495 -61.68 498.24 -57 L 498.24 -57 L 498.24 -66.48 L 515.16 -66.48 L 515.16 0.48 Q 515.16 9.72 511.44 16.98 Q 507.72 24.24 500.28 28.5 Q 492.84 32.76 482.28 32.76 L 482.28 32.76 Q 468.12 32.76 459.06 26.16 Q 450 19.56 448.8 8.16 L 448.8 8.16 L 465.48 8.16 Q 466.8 12.72 471.18 15.42 Q 475.56 18.12 481.8 18.12 L 481.8 18.12 Q 489.12 18.12 493.68 13.74 Q 498.24 9.36 498.24 0.48 L 498.24 0.48 L 498.24 -9.84 Q 495 -5.16 489.3 -2.04 Q 483.6 1.08 476.28 1.08 L 476.28 1.08 Q 467.88 1.08 460.92 -3.24 Q 453.96 -7.56 449.94 -15.42 Q 445.92 -23.28 445.92 -33.48 L 445.92 -33.48 Q 445.92 -43.56 449.94 -51.36 Q 453.96 -59.16 460.86 -63.36 Q 467.76 -67.56 476.28 -67.56 L 476.28 -67.56 M 498.24 -33.24 Q 498.24 -39.36 495.84 -43.74 Q 493.44 -48.12 489.36 -50.46 Q 485.28 -52.8 480.6 -52.8 L 480.6 -52.8 Q 475.92 -52.8 471.96 -50.52 Q 468 -48.24 465.54 -43.86 Q 463.08 -39.48 463.08 -33.48 L 463.08 -33.48 Q 463.08 -27.48 465.54 -22.98 Q 468 -18.48 472.02 -16.08 Q 476.04 -13.68 480.6 -13.68 L 480.6 -13.68 Q 485.28 -13.68 489.36 -16.02 Q 493.44 -18.36 495.84 -22.74 Q 498.24 -27.12 498.24 -33.24 L 498.24 -33.24 M 540.12 -74.4 Q 535.68 -74.4 532.74 -77.22 Q 529.8 -80.04 529.8 -84.24 L 529.8 -84.24 Q 529.8 -88.44 532.74 -91.26 Q 535.68 -94.08 540.12 -94.08 L 540.12 -94.08 Q 544.56 -94.08 547.5 -91.26 Q 550.44 -88.44 550.44 -84.24 L 550.44 -84.24 Q 550.44 -80.04 547.5 -77.22 Q 544.56 -74.4 540.12 -74.4 L 540.12 -74.4 M 531.6 -66.48 L 548.4 -66.48 L 548.4 0 L 531.6 0 L 531.6 -66.48 M 601.8 -67.44 Q 613.68 -67.44 621 -59.94 Q 628.32 -52.44 628.32 -39 L 628.32 -39 L 628.32 0 L 611.52 0 L 611.52 -36.72 Q 611.52 -44.64 607.56 -48.9 Q 603.6 -53.16 596.76 -53.16 L 596.76 -53.16 Q 589.8 -53.16 585.78 -48.9 Q 581.76 -44.64 581.76 -36.72 L 581.76 -36.72 L 581.76 0 L 564.96 0 L 564.96 -66.48 L 581.76 -66.48 L 581.76 -58.2 Q 585.12 -62.52 590.34 -64.98 Q 595.56 -67.44 601.8 -67.44 L 601.8 -67.44 M 706.08 -34.68 Q 706.08 -31.08 705.6 -28.2 L 705.6 -28.2 L 657 -28.2 Q 657.6 -21 662.04 -16.92 Q 666.48 -12.84 672.96 -12.84 L 672.96 -12.84 Q 682.32 -12.84 686.28 -20.88 L 686.28 -20.88 L 704.4 -20.88 Q 701.52 -11.28 693.36 -5.1 Q 685.2 1.08 673.32 1.08 L 673.32 1.08 Q 663.72 1.08 656.1 -3.18 Q 648.48 -7.44 644.22 -15.24 Q 639.96 -23.04 639.96 -33.24 L 639.96 -33.24 Q 639.96 -43.56 644.16 -51.36 Q 648.36 -59.16 655.92 -63.36 Q 663.48 -67.56 673.32 -67.56 L 673.32 -67.56 Q 682.8 -67.56 690.3 -63.48 Q 697.8 -59.4 701.94 -51.9 Q 706.08 -44.4 706.08 -34.68 L 706.08 -34.68 M 657.12 -39.48 L 688.68 -39.48 Q 688.56 -45.96 684 -49.86 Q 679.44 -53.76 672.84 -53.76 L 672.84 -53.76 Q 666.6 -53.76 662.34 -49.98 Q 658.08 -46.2 657.12 -39.48 L 657.12 -39.48"/></g></svg>
